<svg width="240" height="180" version="1.1" xmlns="http://www.w3.org/2000/svg" desc="Created with imagetracer.js version 0.2.1" ><path fill="rgb(0,0,0)" stroke="rgb(0,0,0)" stroke-width="1" opacity="1" d="M 36 0 L 60 0 L 60 12 L 72 12 L 72 24 L 84 24 L 84 36 L 96 36 L 96 48 L 144 48 L 144 36 L 156 36 L 156 24 L 168 24 L 168 12 L 180 12 L 180 0 L 204 0 L 204 12 L 192.5 12 L 192 12.5 L 192 60 L 203.5 60 L 204 60.5 L 204 108 L 216 108 L 216 120 L 240 120 L 240 132 L 216 132 L 216 144 L 228 144 L 228 156 L 192 156 L 192 168 L 180 168 L 180 179.5 L 179.5 180 L 60 180 L 60 168 L 48 168 L 48 156 L 12 156 L 12 144 L 24 144 L 24 132 L 0 132 L 0 120 L 24 120 L 24 108 L 36 108 L 36 60.5 L 36.5 60 L 47.5 60 L 48 59.5 L 48 12 L 36 12 L 36 0 Z M 60 24 L 60 60 L 60 60 L 49 60 L 48 61 L 48 108 L 48 108 L 36 108 L 36 120 L 60 120 L 60 132 L 96 132 L 96 144 L 60 144 L 60 168 L 61 168 L 180 168 L 180 144 L 144 144 L 144 132 L 180 132 L 180 132 L 180 120 L 204 120 L 204 108 L 193 108 L 192 108 L 192 61 L 192 60 L 181 60 L 180 60 L 180 24 L 168 24 L 168 36 L 156 36 L 156 48 L 144 48 L 144 60 L 96 60 L 96 48 L 84 48 L 84 36 L 72 36 L 72 24 L 60 24 Z M 36 132 L 36 144 L 60 144 L 60 132 L 36 132 Z M 180 132 L 180 144 L 204 144 L 204 132 L 180 132 Z " /><path fill="rgb(0,0,0)" stroke="rgb(0,0,0)" stroke-width="1" opacity="1" d="M 60 84 L 72 84 L 72 96 L 96 96 L 96 108 L 108 108 L 108 120 L 72 120 L 72 108 L 60 108 L 60 84 Z " /><path fill="rgb(0,0,0)" stroke="rgb(0,0,0)" stroke-width="1" opacity="1" d="M 168 84 L 180 84 L 180 108 L 168 108 L 168 119.5 L 167.5 120 L 132 120 L 132 108 L 144 108 L 144 96 L 168 96 L 168 84 Z " /><path fill="rgb(0,0,0)" stroke="rgb(0,0,0)" stroke-width="1" opacity="0" d="M 0 0 L 35.5 0 L 36 0.5 L 36 12 L 48 12 L 48 60 L 36.5 60 L 36 60.5 L 36 108 L 24 108 L 24 120 L 0 120 L 0 0 Z " /><path fill="rgb(0,0,0)" stroke="rgb(0,0,0)" stroke-width="1" opacity="0" d="M 60 0 L 179.5 0 L 180 0.5 L 180 12 L 168 12 L 168 24 L 156 24 L 156 36 L 144 36 L 144 48 L 96 48 L 96 36 L 84 36 L 84 24 L 72 24 L 72 12 L 60 12 L 60 0 Z " /><path fill="rgb(0,0,0)" stroke="rgb(0,0,0)" stroke-width="1" opacity="0" d="M 204 0 L 239.5 0 L 240 0.5 L 240 120 L 216 120 L 216 108 L 204 108 L 204 60.5 L 203.5 60 L 192.5 60 L 192 59.5 L 192 12 L 204 12 L 204 0 Z " /><path fill="rgb(0,0,0)" stroke="rgb(0,0,0)" stroke-width="1" opacity="0" d="M 0 132 L 24 132 L 24 144 L 12 144 L 12 156 L 48 156 L 48 168 L 60 168 L 60 180 L 0 180 L 0 132 Z " /><path fill="rgb(0,0,0)" stroke="rgb(0,0,0)" stroke-width="1" opacity="0" d="M 216 132 L 240 132 L 240 180 L 180.5 180 L 180 179.5 L 180 168 L 192 168 L 192 156.5 L 192.5 156 L 228 156 L 228 144 L 216 144 L 216 132 Z " /><path fill="rgb(255,127,39)" stroke="rgb(255,127,39)" stroke-width="1" opacity="1" d="M 156 36 L 168 36 L 168 48 L 156 48 L 156 60 L 144 60 L 144 48 L 156 48 L 156 36 Z " /><path fill="rgb(255,127,39)" stroke="rgb(255,127,39)" stroke-width="1" opacity="1" d="M 48 60 L 72 60 L 72 84 L 84 84 L 84 96 L 72 96 L 72 84 L 60 84 L 60 108 L 72 108 L 72 120 L 36 120 L 36 108 L 47.5 108 L 48 107.5 L 48 60 Z " /><path fill="rgb(255,127,39)" stroke="rgb(255,127,39)" stroke-width="1" opacity="1" d="M 108 108 L 132 108 L 132 120 L 108 120 L 108 108 Z " /><path fill="rgb(255,127,39)" stroke="rgb(255,127,39)" stroke-width="1" opacity="1" d="M 36 132 L 60 132 L 60 144 L 72 144 L 72 156 L 84 156 L 84 168 L 60 168 L 60 144 L 36 144 L 36 132 Z " /><path fill="rgb(255,127,39)" stroke="rgb(255,127,39)" stroke-width="1" opacity="1" d="M 156 156 L 180 156 L 180 168 L 156 168 L 156 156 Z " /><path fill="rgb(246,170,9)" stroke="rgb(246,170,9)" stroke-width="1" opacity="1" d="M 72 36 L 84 36 L 84 48 L 96 48 L 96 59.5 L 96.5 60 L 192 60 L 192 107.5 L 192.5 108 L 204 108 L 204 120 L 180 120 L 180 132 L 204 132 L 204 144 L 180 144 L 180 156 L 156 156 L 156 168 L 144 168 L 144 156 L 156 156 L 156 144 L 180 144 L 180 132 L 60.5 132 L 60 131.5 L 60 120 L 167.5 120 L 168 119.5 L 168 108 L 180 108 L 180 84 L 168 84 L 168 96 L 144 96 L 144 107.5 L 143.5 108 L 96 108 L 96 96 L 84 96 L 84 84 L 72 84 L 72 60 L 84 60 L 84 48 L 72 48 L 72 36 Z " /><path fill="rgb(246,170,9)" stroke="rgb(246,170,9)" stroke-width="1" opacity="1" d="M 72 144 L 84 144 L 84 156 L 96 156 L 96 168 L 84 168 L 84 156 L 72 156 L 72 144 Z " /><path fill="rgb(246,170,9)" stroke="rgb(246,170,9)" stroke-width="1" opacity="1" d="M 108 156 L 132 156 L 132 168 L 108 168 L 108 156 Z " /><path fill="rgb(243,141,169)" stroke="rgb(243,141,169)" stroke-width="1" opacity="1" d="M 60 24 L 72 24 L 72 48 L 84 48 L 84 60 L 60 60 L 60 24 Z " /><path fill="rgb(243,141,169)" stroke="rgb(243,141,169)" stroke-width="1" opacity="1" d="M 168 24 L 180 24 L 180 60 L 156 60 L 156 48 L 168 48 L 168 24 Z " /><path fill="rgb(243,141,169)" stroke="rgb(243,141,169)" stroke-width="1" opacity="1" d="M 108 132 L 132 132 L 132 144 L 108 144 L 108 132 Z " /><path fill="rgb(255,250,194)" stroke="rgb(255,250,194)" stroke-width="1" opacity="1" d="M 96 132 L 108 132 L 108 144 L 132 144 L 132 132 L 144 132 L 144 144 L 156 144 L 156 156 L 144 156 L 144 168 L 132 168 L 132 156 L 108 156 L 108 168 L 96 168 L 96 156 L 84 156 L 84 144 L 96 144 L 96 132 Z " /></svg>