<?xml version="1.0" encoding="UTF-8"?>
<svg version="1.1" xmlns="http://www.w3.org/2000/svg" width="240" height="180">
<path d="M0,0 L24,0 L24,12 L36,12 L36,24 L48,24 L48,36 L60,36 L60,48 L108,48 L108,36 L120,36 L120,24 L132,24 L132,12 L144,12 L144,0 L168,0 L168,12 L156,12 L156,60 L168,60 L168,108 L180,108 L180,120 L204,120 L204,132 L180,132 L180,144 L192,144 L192,156 L156,156 L156,168 L144,168 L144,180 L24,180 L24,168 L12,168 L12,156 L-24,156 L-24,144 L-12,144 L-12,132 L-36,132 L-36,120 L-12,120 L-12,108 L0,108 L0,60 L12,60 L12,12 L0,12 Z " fill="#F6AA09" transform="translate(36,0)"/>
<path d="M0,0 L24,0 L24,12 L36,12 L36,48 L48,48 L48,60 L36,60 L36,96 L60,96 L60,108 L72,108 L72,120 L24,120 L24,132 L60,132 L60,144 L24,144 L24,168 L12,168 L12,156 L-24,156 L-24,144 L-12,144 L-12,132 L-36,132 L-36,120 L-12,120 L-12,108 L0,108 L0,60 L12,60 L12,12 L0,12 Z " fill="#FF7F27" transform="translate(36,0)"/>
<path d="M0,0 L48,0 L48,12 L84,12 L84,48 L-36,48 L-36,12 L0,12 Z " fill="#FFFABC" transform="translate(96,132)"/>
<path d="M0,0 L12,0 L12,12 L36,12 L36,24 L12,24 L12,36 L24,36 L24,48 L-12,48 L-12,60 L-24,60 L-24,36 L-60,36 L-60,24 L-24,24 L-24,12 L0,12 Z " fill="#000000" transform="translate(204,108)"/>
<path d="M0,0 L12,0 L12,12 L36,12 L36,24 L72,24 L72,36 L36,36 L36,60 L24,60 L24,48 L-12,48 L-12,36 L0,36 L0,24 L-24,24 L-24,12 L0,12 Z " fill="#000000" transform="translate(24,108)"/>
<path d="M0,0 L120,0 L120,12 L0,12 Z " fill="#000000" transform="translate(60,168)"/>
<path d="M0,0 L12,0 L12,24 L0,24 L0,36 L-36,36 L-36,24 L-24,24 L-24,12 L0,12 Z " fill="#000000" transform="translate(168,84)"/>
<path d="M0,0 L12,0 L12,12 L36,12 L36,24 L48,24 L48,36 L12,36 L12,24 L0,24 Z " fill="#000000" transform="translate(60,84)"/>
<path d="M0,0 L24,0 L24,12 L12,12 L12,60 L0,60 L0,24 L-12,24 L-12,12 L0,12 Z " fill="#000000" transform="translate(180,0)"/>
<path d="M0,0 L24,0 L24,12 L36,12 L36,24 L24,24 L24,60 L12,60 L12,12 L0,12 Z " fill="#000000" transform="translate(36,0)"/>
<path d="M0,0 L24,0 L24,24 L-12,24 L-12,12 L0,12 Z " fill="#FF7F27" transform="translate(156,144)"/>
<path d="M0,0 L24,0 L24,12 L36,12 L36,24 L0,24 Z " fill="#FF7F27" transform="translate(60,144)"/>
<path d="M0,0 L12,0 L12,48 L0,48 Z " fill="#000000" transform="translate(192,60)"/>
<path d="M0,0 L12,0 L12,48 L0,48 Z " fill="#000000" transform="translate(36,60)"/>
<path d="M0,0 L48,0 L48,12 L0,12 Z " fill="#000000" transform="translate(96,48)"/>
<path d="M0,0 L12,0 L12,36 L-12,36 L-12,24 L0,24 Z " fill="#F38DA9" transform="translate(168,24)"/>
<path d="M0,0 L12,0 L12,24 L24,24 L24,36 L0,36 Z " fill="#F38DA9" transform="translate(60,24)"/>
<path d="M0,0 L36,0 L36,12 L0,12 Z " fill="#000000" transform="translate(144,132)"/>
<path d="M0,0 L36,0 L36,12 L0,12 Z " fill="#000000" transform="translate(60,132)"/>
<path d="M0,0 L12,0 L12,24 L-12,24 L-12,12 L0,12 Z " fill="#FF7F27" transform="translate(156,24)"/>
<path d="M0,0 L12,0 L12,12 L24,12 L24,24 L0,24 Z " fill="#F6AA09" transform="translate(72,24)"/>
<path d="M0,0 L24,0 L24,12 L0,12 Z " fill="#F6AA09" transform="translate(108,156)"/>
<path d="M0,0 L24,0 L24,12 L0,12 Z " fill="#F6AA09" transform="translate(156,144)"/>
<path d="M0,0 L24,0 L24,12 L0,12 Z " fill="#F6AA09" transform="translate(180,132)"/>
<path d="M0,0 L24,0 L24,12 L0,12 Z " fill="#F38DA9" transform="translate(108,132)"/>
<path d="M0,0 L24,0 L24,12 L0,12 Z " fill="#FF7F27" transform="translate(36,132)"/>
<path d="M0,0 L24,0 L24,12 L0,12 Z " fill="#FF7F27" transform="translate(108,108)"/>
<path d="M0,0 L12,0 L12,12 L0,12 Z " fill="#F6AA09" transform="translate(144,156)"/>
<path d="M0,0 L12,0 L12,12 L0,12 Z " fill="#FFFFFF" transform="translate(132,156)"/>
<path d="M0,0 L12,0 L12,12 L0,12 Z " fill="#FFFFFF" transform="translate(96,156)"/>
<path d="M0,0 L12,0 L12,12 L0,12 Z " fill="#F6AA09" transform="translate(84,156)"/>
<path d="M0,0 L12,0 L12,12 L0,12 Z " fill="#F6AA09" transform="translate(72,144)"/>
<path d="M0,0 L12,0 L12,12 L0,12 Z " fill="#FF7F27" transform="translate(72,84)"/>
<path d="M0,0 L12,0 L12,12 L0,12 Z " fill="#FF7F27" transform="translate(144,48)"/>
<path d="M0,0 L12,0 L12,12 L0,12 Z " fill="#000000" transform="translate(144,36)"/>
<path d="M0,0 L12,0 L12,12 L0,12 Z " fill="#000000" transform="translate(84,36)"/>
<path d="M0,0 L12,0 L12,12 L0,12 Z " fill="#000000" transform="translate(156,24)"/>
<path d="M0,0 L12,0 L12,12 L0,12 Z " fill="#000000" transform="translate(72,24)"/>
</svg>
